<?xml version="1.0" encoding="UTF-8" standalone="no"?>
<!-- Created with Keyshape -->
<svg xmlns="http://www.w3.org/2000/svg" viewBox="0 0 150 150" text-rendering="geometricPrecision" shape-rendering="geometricPrecision" style="white-space: pre;">
    <style>
@keyframes a0_t { 0% { transform: translate(75px,76px) scale(1,1); } 16% { transform: translate(75px,76px) scale(1.3,1.3); } 100% { transform: translate(75px,76px) scale(1.3,1.3); } }
@keyframes a0_v { 0% { visibility: visible; animation-timing-function: steps(1); } 16% { visibility: hidden; animation-timing-function: steps(1); } 100% { visibility: hidden; animation-timing-function: steps(1); } }
@keyframes a0_o { 0% { opacity: 1; } 16% { opacity: 0; } 100% { opacity: 0; } }
@keyframes a1_t { 0% { transform: translate(73.895px,52.15px) scale(1,1) translate(-128.895px,-68.65px); } 16% { transform: translate(73.895px,52.15px) scale(1,1) translate(-128.895px,-68.65px); animation-timing-function: cubic-bezier(0,0,0.58,1); } 27% { transform: translate(73.895px,52.15px) scale(1.2,1.2) translate(-128.895px,-68.65px); animation-timing-function: cubic-bezier(0.42,0,1,1); } 38% { transform: translate(73.895px,52.15px) scale(1,1) translate(-128.895px,-68.65px); } 100% { transform: translate(73.895px,52.15px) scale(1,1) translate(-128.895px,-68.65px); } }
@keyframes a2_t { 0% { transform: translate(75.005px,90.57px) scale(1,1) translate(-30.355px,-21.15px); } 38% { transform: translate(75.005px,90.57px) scale(1,1) translate(-30.355px,-21.15px); animation-timing-function: cubic-bezier(0,0,0.58,1); } 49% { transform: translate(75.005px,90.57px) scale(1.2,1.2) translate(-30.355px,-21.15px); animation-timing-function: cubic-bezier(0.42,0,0.58,1); } 60% { transform: translate(75.005px,90.57px) scale(1,1) translate(-30.355px,-21.15px); } 100% { transform: translate(75.005px,90.57px) scale(1,1) translate(-30.355px,-21.15px); } }
@keyframes a3_t { 0% { transform: translate(30.355px,21.15px) scale(1,1) translate(-130.005px,-107.07px); } 38% { transform: translate(30.355px,21.15px) scale(1,1) translate(-130.005px,-107.07px); } 100% { transform: translate(30.355px,21.15px) scale(1,1) translate(-130.005px,-107.07px); } }
    </style>
    <ellipse fill="#e51e21" rx="61.06" ry="61.06" transform="translate(75,75)"/>
    <ellipse fill="#e51e21" rx="61.06" ry="61.06" transform="translate(75,75)"/>
    <ellipse fill="#e51e21" rx="57.56" ry="57.56" visibility="visible" opacity="1" transform="translate(75,76)" style="animation: 5s linear infinite both a0_t, 5s linear infinite forwards a0_v, 5s linear infinite both a0_o;"/>
    <path d="M123.65,54.78L119.49,54.78L116.69,65.56L113.77,54.78L109.44,54.78C110.31,57.32,111.21,59.88,112.08,62.43C113.4,66.26,114.22,69.15,114.59,71.12L114.59,82.24L118.7,82.24L118.7,71.12L123.65,54.78ZM134.64,75.61L134.64,68.44C134.64,66.25,134.26,64.66,133.49,63.62C132.46,62.22,131.02,61.52,129.17,61.52C127.32,61.52,125.88,62.22,124.85,63.62C124.06,64.66,123.69,66.25,123.69,68.44L123.69,75.61C123.69,77.79,124.06,79.4,124.85,80.42C125.88,81.82,127.32,82.51,129.17,82.51C131.03,82.51,132.47,81.81,133.49,80.42C134.26,79.4,134.64,77.79,134.64,75.61ZM130.93,76.31C130.93,78.2,130.36,79.15,129.16,79.15C127.96,79.15,127.39,78.2,127.39,76.31L127.39,67.7C127.39,65.81,127.96,64.86,129.16,64.86C130.36,64.86,130.93,65.8,130.93,67.7L130.93,76.31ZM148.35,82.24L148.35,61.78L144.64,61.78L144.64,77.42C143.82,78.58,143.04,79.16,142.3,79.16C141.8,79.16,141.51,78.87,141.43,78.29C141.38,78.17,141.38,77.72,141.38,76.85L141.38,61.78L137.68,61.78L137.68,77.96C137.68,79.4,137.81,80.38,138.01,81C138.38,82.04,139.2,82.52,140.4,82.52C141.75,82.52,143.16,81.7,144.64,80L144.64,82.23L148.35,82.23Z" fill="#fff" transform="translate(73.895,52.15) translate(-128.895,-68.65)" style="animation: 5s linear infinite both a1_t;"/>
    <g transform="translate(75.005,90.57) translate(-30.355,-21.15)" style="animation: 5s linear infinite both a2_t;">
        <path d="M136.72,103.01C136.12,103.01,135.5,103.3,134.89,103.9L134.89,116.24C135.5,116.85,136.12,117.14,136.72,117.14C137.78,117.14,138.32,116.24,138.32,114.41L138.32,105.77C138.32,103.95,137.78,103.01,136.72,103.01Z" fill="#fff" transform="translate(36.955,24.155) translate(-136.605,-110.075)"/>
        <path d="M150.34,103.01C149.11,103.01,148.5,103.95,148.5,105.82L148.5,107.69L152.17,107.69L152.17,105.82C152.16,103.95,151.55,103.01,150.34,103.01Z" fill="#fff" transform="translate(50.685,19.43) translate(-150.335,-105.35)"/>
        <path d="M159.3,92.72C158.56,89.49,155.92,87.11,152.74,86.76C145.21,85.92,137.59,85.92,130.01,85.92C122.42,85.92,114.8,85.92,107.28,86.76C104.1,87.11,101.46,89.5,100.72,92.72C99.66,97.32,99.65,102.34,99.65,107.07C99.65,111.8,99.65,116.82,100.71,121.42C101.45,124.65,104.09,127.03,107.27,127.38C114.8,128.22,122.42,128.22,130,128.22C137.58,128.22,145.21,128.22,152.73,127.38C155.91,127.02,158.55,124.64,159.29,121.42C160.35,116.82,160.36,111.8,160.36,107.07C160.36,102.33,160.36,97.32,159.3,92.72ZM116.97,96.86L112.57,96.86L112.57,120.21L108.49,120.21L108.49,96.86L104.17,96.86L104.17,93.03L116.96,93.03L116.96,96.86ZM128.05,120.2L124.38,120.2L124.38,117.99C122.92,119.66,121.54,120.48,120.19,120.48C119.01,120.48,118.19,120,117.83,118.97C117.63,118.35,117.51,117.39,117.51,115.96L117.51,99.95L121.18,99.95L121.18,114.86C121.18,115.72,121.18,116.17,121.21,116.29C121.3,116.86,121.58,117.15,122.07,117.15C122.81,117.15,123.58,116.58,124.39,115.44L124.39,99.95L128.06,99.95L128.06,120.2ZM141.99,114.13C141.99,116,141.86,117.35,141.62,118.21C141.13,119.72,140.15,120.48,138.69,120.48C137.38,120.48,136.13,119.75,134.9,118.24L134.9,120.2L131.23,120.2L131.23,93.03L134.9,93.03L134.9,101.91C136.09,100.45,137.34,99.71,138.69,99.71C140.15,99.71,141.13,100.48,141.62,101.99C141.86,102.81,141.99,104.15,141.99,106.06L141.99,114.13ZM155.84,110.75L148.5,110.75L148.5,114.34C148.5,116.22,149.11,117.15,150.37,117.15C151.27,117.15,151.8,116.66,152.01,115.68C152.04,115.48,152.09,114.67,152.09,113.2L155.84,113.2L155.84,113.73C155.84,114.91,155.79,115.73,155.76,116.1C155.64,116.91,155.35,117.65,154.91,118.3C153.89,119.77,152.39,120.49,150.47,120.49C148.55,120.49,147.09,119.8,146.03,118.41C145.25,117.4,144.85,115.8,144.85,113.65L144.85,106.56C144.85,104.39,145.2,102.81,145.98,101.79C147.04,100.4,148.5,99.71,150.37,99.71C152.21,99.71,153.67,100.4,154.7,101.79C155.47,102.81,155.84,104.39,155.84,106.56L155.84,110.75Z" fill="#fff" transform="translate(30.355,21.15) translate(-130.005,-107.07)" style="animation: 5s linear infinite both a3_t;"/>
    </g>
</svg>
